# xmcd
#
# Track frame offsets: 
#        150
#        19897
#        40049
#        68440
#        88511
#        112494
#        128377
#        149667
#        167211
#        189774
#        217103
#        234144
#        253472
#        277406
#        296575
#        316749
#
# Disc length: 4447 seconds
#
# Revision: 0
# Processed by: cddbd v1.4PL0 Copyright (c) Steve Scherf et al.
# Submitted via: ExactAudioCopy v0.90b4
#
DISCID=f0115d10
DTITLE=Seal - Best Of Seal
DYEAR=1900
DGENRE=Soul
TTITLE0=Human Deing
TTITLE1=Crazy
TTITLE2=Killer
TTITLE3=Lost My Faith
TTITLE4=Drayer For Dying
TTITLE5=Fly Like An Eagle
TTITLE6=Kiss From A Rose
TTITLE7=Bring It Out
TTITLE8=Colours
TTITLE9=Don't Cry
TTITLE10=Newborn Friend
TTITLE11=Future Love Paradise
TTITLE12=Out Of The Window
TTITLE13=Hey Toe
TTITLE14=Still You Remains
TTITLE15=When The Man Is Wrang
EXTD=
EXTT0=
EXTT1=
EXTT2=
EXTT3=
EXTT4=
EXTT5=
EXTT6=
EXTT7=
EXTT8=
EXTT9=
EXTT10=
EXTT11=
EXTT12=
EXTT13=
EXTT14=
EXTT15=
PLAYORDER=
